<?xml version="1.0" encoding="UTF-8" standalone="no"?>
<svg
   xmlns:dc="http://purl.org/dc/elements/1.1/"
   xmlns:cc="http://creativecommons.org/ns#"
   xmlns:rdf="http://www.w3.org/1999/02/22-rdf-syntax-ns#"
   xmlns:svg="http://www.w3.org/2000/svg"
   xmlns="http://www.w3.org/2000/svg"
   xmlns:xlink="http://www.w3.org/1999/xlink"
   xmlns:sodipodi="http://sodipodi.sourceforge.net/DTD/sodipodi-0.dtd"
   xmlns:inkscape="http://www.inkscape.org/namespaces/inkscape"
   width="422.40115mm"
   height="237.60066mm"
   viewBox="0 0 422.40115 237.60066"
   version="1.1"
   id="svg8"
   inkscape:version="1.0.2 (e86c870879, 2021-01-15)"
   sodipodi:docname="seal.svg">
  <defs
     id="defs2">
    <inkscape:path-effect
       effect="mirror_symmetry"
       start_point="122.32966,102.48637"
       end_point="122.32966,202.43005"
       center_point="122.32966,152.45821"
       id="path-effect970"
       is_visible="true"
       lpeversion="1"
       mode="free"
       discard_orig_path="false"
       fuse_paths="false"
       oposite_fuse="false"
       split_items="false" />
    <linearGradient
       inkscape:collect="always"
       id="linearGradient961">
      <stop
         style="stop-color:#c92eb2;stop-opacity:1"
         offset="0"
         id="stop957" />
      <stop
         style="stop-color:#fca97c;stop-opacity:1"
         offset="1"
         id="stop959" />
    </linearGradient>
    <inkscape:path-effect
       effect="mirror_symmetry"
       start_point="63.161449,39.420208"
       end_point="63.161449,155.0118"
       center_point="63.161449,97.216004"
       id="path-effect858"
       is_visible="true"
       lpeversion="1"
       mode="free"
       discard_orig_path="false"
       fuse_paths="false"
       oposite_fuse="false"
       split_items="false" />
    <inkscape:path-effect
       center_point="63.161446,210.33343"
       end_point="63.161446,216.04476"
       start_point="63.161446,204.6221"
       effect="mirror_symmetry"
       id="path-effect853"
       is_visible="true"
       lpeversion="1"
       mode="free"
       discard_orig_path="false"
       fuse_paths="false"
       oposite_fuse="false"
       split_items="false" />
    <inkscape:path-effect
       effect="mirror_symmetry"
       start_point="63.161445,159.96169"
       end_point="63.161445,204.6221"
       center_point="63.161445,182.2919"
       id="path-effect851"
       is_visible="true"
       lpeversion="1"
       mode="free"
       discard_orig_path="false"
       fuse_paths="false"
       oposite_fuse="false"
       split_items="false" />
    <inkscape:path-effect
       effect="mirror_symmetry"
       start_point="63.161448,151.83681"
       end_point="63.161448,159.96168"
       center_point="63.161448,155.89925"
       id="path-effect849"
       is_visible="true"
       lpeversion="1"
       mode="free"
       discard_orig_path="false"
       fuse_paths="false"
       oposite_fuse="false"
       split_items="false" />
    <inkscape:path-effect
       effect="mirror_symmetry"
       start_point="63.161449,39.420208"
       end_point="63.161449,133.84513"
       center_point="63.161449,86.632669"
       id="path-effect836"
       is_visible="true"
       lpeversion="1"
       mode="free"
       discard_orig_path="false"
       fuse_paths="false"
       oposite_fuse="false"
       split_items="false" />
    <linearGradient
       inkscape:collect="always"
       xlink:href="#linearGradient961"
       id="linearGradient963"
       x1="100.56595"
       y1="127.09857"
       x2="158.53703"
       y2="192.20139"
       gradientUnits="userSpaceOnUse" />
    <filter
       inkscape:collect="always"
       style="color-interpolation-filters:sRGB"
       id="filter1117"
       x="-0.053100196"
       width="1.1062004"
       y="-0.053201681"
       height="1.1064034">
      <feGaussianBlur
         inkscape:collect="always"
         stdDeviation="1.699689"
         id="feGaussianBlur1119" />
    </filter>
  </defs>
  <sodipodi:namedview
     id="base"
     pagecolor="#ffffff"
     bordercolor="#666666"
     borderopacity="1.0"
     inkscape:pageopacity="0.0"
     inkscape:pageshadow="2"
     inkscape:zoom="0.8972488"
     inkscape:cx="863.69805"
     inkscape:cy="726.60939"
     inkscape:document-units="mm"
     inkscape:current-layer="layer1"
     inkscape:document-rotation="0"
     showgrid="false"
     fit-margin-top="0"
     fit-margin-left="0"
     fit-margin-right="0"
     fit-margin-bottom="0"
     inkscape:window-width="1920"
     inkscape:window-height="1050"
     inkscape:window-x="0"
     inkscape:window-y="0"
     inkscape:window-maximized="1"
     inkscape:snap-page="true" />
  <metadata
     id="metadata5">
    <rdf:RDF>
      <cc:Work
         rdf:about="">
        <dc:format>image/svg+xml</dc:format>
        <dc:type
           rdf:resource="http://purl.org/dc/dcmitype/StillImage" />
        <dc:title />
      </cc:Work>
    </rdf:RDF>
  </metadata>
  <g
     inkscape:label="Layer 1"
     inkscape:groupmode="layer"
     id="layer1"
     transform="translate(88.870915,26.767815)">
    <path
       id="path967"
       style="opacity:1;fill:#000000;fill-opacity:1;stroke:none;stroke-width:0.529167;stroke-linecap:square;stroke-linejoin:bevel;stop-color:#000000"
       d="m 122.32969,125.43209 c -68.531635,-1e-5 -82.538925,49.04175 -137.163207,66.26021 -21.936905,6.91487 -74.03734,19.14055 -74.03734,19.14055 H 122.32969 333.53024 c 0,0 -52.10045,-12.22568 -74.03735,-19.14055 -54.62429,-17.21846 -68.63157,-66.26022 -137.1632,-66.26021 z"
       sodipodi:nodetypes="sscccss" />
    <path
       id="path879"
       style="fill:#000000;stroke:none;stroke-width:0.0953796;filter:url(#filter1117)"
       d="m 103.65326,122.58409 c 1.23559,-0.60068 2.54324,-1.0678 3.86687,-1.23593 1.32363,-0.16813 2.66326,-0.0373 3.96278,0.55802 1.02992,0.26981 2.04147,0.65456 3.02726,1.10236 0.9858,0.4478 1.94585,0.95864 2.87279,1.48063 0.91617,0.93505 1.86693,1.84602 2.74956,2.81139 0.88263,0.96537 1.69714,1.98514 2.34082,3.13777 0.99026,1.25201 1.94508,2.53048 2.85785,3.83815 0.91278,1.30768 1.78351,2.64455 2.60558,4.01337 0.41256,1.70647 0.96042,3.41551 1.72871,5.00584 0.76828,1.59033 1.75698,3.06195 3.05121,4.2936 1.47823,1.65828 2.49621,3.60188 3.25746,5.66081 0.76125,2.05893 1.26576,4.2332 1.71704,6.35285 0.099,0.952 0.11102,1.90868 0.0906,2.86389 -0.0205,0.9552 -0.0734,1.90893 -0.10439,2.85503 0.56948,1.03784 1.26195,2.04663 2.1029,2.89402 0.84093,0.84739 1.83034,1.53339 2.9937,1.92567 1.39947,1.03479 2.9458,1.91629 4.58432,2.54132 1.63853,0.62502 3.36925,0.99358 5.13751,1.0025 1.45541,0.30618 2.47594,1.26951 3.34062,2.42799 0.86468,1.15849 1.57353,2.51212 2.40558,3.59891 0.56242,1.14435 1.04597,2.34082 1.61206,3.48552 0.56608,1.1447 1.21471,2.23764 2.1073,3.17494 -0.30045,1.26173 -0.79129,2.47347 -0.75985,3.50483 0.0314,1.03136 0.58518,1.88234 2.37391,2.42253 1.1579,0.48229 1.80161,1.24042 1.78127,1.81564 -0.0203,0.57522 -0.70472,0.96752 -2.20306,0.71814 -1.50042,0.86765 -2.93634,0.76213 -4.36459,0.39955 -1.42825,-0.36258 -2.84884,-0.98223 -4.3186,-1.14284 1.11856,0.53027 1.72263,1.51089 1.66008,2.34056 -0.0625,0.82967 -0.79172,1.50839 -2.33965,1.43486 -1.45401,0.27988 -2.79459,-0.14389 -4.13518,-0.5899 -1.34059,-0.44601 -2.68119,-0.91425 -4.13525,-0.72334 -1.41619,-0.23202 -2.85518,-0.26149 -4.28327,-0.34789 -1.42809,-0.0864 -2.84527,-0.22971 -4.21784,-0.68937 -0.96901,-0.14603 -1.86263,-0.61626 -2.741,-1.04036 -0.87837,-0.4241 -1.74151,-0.80205 -2.64955,-0.76351 -1.07886,-0.12204 -2.06792,-0.23103 -2.97548,-0.46812 -0.90756,-0.23709 -1.73363,-0.60228 -2.48649,-1.23673 -0.92304,-1.06314 -1.95143,-1.1678 -3.00089,-0.91643 -1.04946,0.25137 -2.11999,0.85877 -3.12732,1.21974 -0.84622,-0.43665 -1.55764,-0.0578 -2.28475,0.37059 -0.72711,0.4284 -1.46991,0.90638 -2.37891,0.66799 -0.83336,-0.38851 -1.6976,-0.40254 -2.57436,-0.34356 -0.87676,0.059 -1.76603,0.19093 -2.64943,0.0944 -1.12623,0.27061 -2.18711,0.27791 -3.256,0.18581 -1.06888,-0.0921 -2.14577,-0.28359 -3.30402,-0.41055 -1.59982,-0.38692 -3.21481,-0.36683 -4.802738,-0.0986 -1.58793,0.26821 -3.14881,0.78454 -4.64041,1.39011 -0.77229,0.20138 -1.67919,0.49766 -2.55586,0.63319 -0.87668,0.13552 -1.72314,0.11029 -2.37455,-0.33135 -0.41993,-0.73484 -0.6027,-1.55158 -0.42428,-2.25089 0.17841,-0.69931 0.718,-1.28121 1.74278,-1.54633 0.8528,-0.37359 1.7037,-0.7285 2.53401,-1.11973 0.8303,-0.39124 1.64002,-0.8188 2.41046,-1.33772 1.16243,-0.61117 2.39703,-1.16552 3.54334,-1.83736 1.146308,-0.67183 2.204328,-1.46116 3.013598,-2.5423 -1.02032,-1.0085 -1.19852,-2.38538 -1.16609,-3.82226 0.0324,-1.43688 0.27547,-2.93376 0.0976,-4.18229 -0.7491,-2.32796 -0.94334,-4.73588 -0.92729,-7.16208 0.016,-2.4262 0.24239,-4.87067 0.33445,-7.27173 0.21448,-0.74367 0.32301,-1.54271 0.45957,-2.32263 0.13656,-0.77992 0.30116,-1.54072 0.62775,-2.20788 0.12617,0.0121 0.20061,-0.53576 0.32412,-1.11919 0.12351,-0.58344 0.29609,-1.20247 0.61852,-1.33281 0.39438,-0.33712 0.62237,-0.79503 0.78132,-1.31616 0.15894,-0.52113 0.24883,-1.10548 0.367,-1.69548 0.40753,-1.41394 0.4885,-2.92453 0.18962,-4.34161 -0.29888,-1.41709 -0.97761,-2.74068 -2.08946,-3.78063 -0.97958,-0.48757 -1.51039,-2.08542 -2.018548,-3.22418 -0.50816,-1.13875 -0.99367,-1.81843 -1.88264,-0.46966 -1.26193,1.26296 -2.06202,2.8146 -2.65169,4.46063 -0.58967,1.64602 -0.96892,3.38642 -1.38918,5.0269 -0.13966,0.84288 -0.5942,2.09093 -0.92484,2.66062 -0.33065,0.56969 -0.53739,0.46102 -0.18145,-1.40954 0.61672,-2.04256 1.06601,-4.20629 1.72998,-6.27233 0.66397,-2.06604 1.54262,-4.03438 3.01808,-5.68613 0.75284,-0.76579 0.22846,-1.46634 -0.4615,-1.64713 -0.68996,-0.1808 -1.54551,0.15814 -1.45501,1.47131 -0.49609,1.54287 -1.3451,2.98783 -2.06617,4.47536 -0.72108,1.48754 -1.31423,3.01765 -1.29859,4.73083 -0.17031,0.86005 -0.30353,1.76713 -0.47516,2.6513 -0.17163,0.88418 -0.38166,1.74545 -0.70558,2.51392 -0.14964,-1.35165 -0.0461,-2.71116 0.15253,-4.06543 0.19859,-1.35427 0.49218,-2.70329 0.72257,-4.03396 0.4886,-1.23096 1.0721,-2.41527 1.642,-3.60329 0.5699,-1.18802 1.12619,-2.37974 1.56036,-3.62554 0.73578,-0.4977 0.67063,-1.27002 0.31178,-2.06192 -0.35885,-0.79189 -1.01141,-1.60337 -1.45045,-2.17939 -0.71787,-1.01802 -0.7758,-2.34728 -0.34139,-3.47313 0.43442,-1.12585 1.36117,-2.04829 2.61268,-2.25267 0.65458,-0.69518 1.58655,-1.37864 2.5951,-2.04685 1.00855,-0.66821 2.093678,-1.32117 3.054578,-1.95537 0.34305,-0.22135 0.69534,-0.20806 1.02336,-0.23099 0.32802,-0.0229 0.63179,-0.0821 0.87781,-0.44832 z m 6.49372,-0.22652 c -1.11259,-0.48537 -1.95458,-0.3727 -2.72457,-0.0656 -0.76999,0.30706 -1.46798,0.80851 -2.29259,1.10067 -0.60284,0.42199 -1.3872,0.51058 -2.16546,0.64597 -0.77826,0.13539 -1.55042,0.31758 -2.12889,0.92678 -0.38101,0.46947 -0.869568,0.94572 -1.399418,1.33051 -0.52985,0.38478 -1.10099,0.67811 -1.64716,0.78174 -0.5574,0.61032 -1.38813,0.86749 -2.05188,1.22904 -0.66376,0.36154 -1.16053,0.82746 -1.05,1.85529 0.0486,0.83914 0.30268,1.68399 0.7059,2.36635 0.40323,0.68237 0.95555,1.20224 1.60055,1.3914 0.19416,0.057 0.51818,0.0155 0.78833,-0.0263 0.27015,-0.0418 0.48642,-0.0839 0.46508,-0.0283 0.0633,0.0901 -0.18934,0.14646 -0.47728,0.20563 -0.28794,0.0592 -0.6112,0.12118 -0.6892,0.22263 -0.3847,0.50036 0.49832,1.32732 1.5534,2.19091 1.05509,0.86358 2.282238,1.76379 2.585828,2.41066 0.99192,0.82764 1.43936,2.05911 1.96018,3.22612 0.52081,1.167 1.115,2.26954 2.40043,2.83929 0.78729,0.86771 0.87835,1.52627 0.7767,2.23004 -0.10164,0.70376 -0.39599,1.45274 -0.37952,2.50132 -0.0535,0.67915 -0.0942,1.35291 -0.18661,2.02024 -0.0925,0.66734 -0.23674,1.32825 -0.4975,1.9817 -0.43607,1.23436 -0.57627,2.50353 -0.56417,3.77951 0.0121,1.27599 0.17649,2.55879 0.34961,3.82041 0.0408,0.77389 0.14134,1.54216 0.24863,2.31188 0.10729,0.76972 0.22132,1.54088 0.28911,2.32057 -0.87569,-0.83986 -1.34532,-1.92557 -1.72932,-3.06075 -0.384,-1.13517 -0.68237,-2.31979 -1.21551,-3.35747 -0.34693,1.74928 -0.40152,3.5291 -0.42157,5.31105 -0.0201,1.78194 -0.006,3.566 -0.21433,5.32375 0.0591,1.15922 0.30015,2.29552 0.5244,3.43028 0.22424,1.13476 0.43173,2.26798 0.42382,3.42107 -0.28208,0.92051 -0.65638,2.24445 -0.62867,3.35566 0.0277,1.1112 0.45742,2.00966 1.78337,2.07921 1.26099,0.73172 2.34738,1.67285 3.33744,2.7134 0.99006,1.04055 1.88379,2.18052 2.75942,3.30996 0.51877,0.56124 1.09816,1.10752 1.74313,1.51955 0.64498,0.41203 1.35555,0.68981 2.1367,0.71406 0.71203,0.21533 1.46729,0.52891 2.18197,0.58022 0.71467,0.0513 1.38876,-0.15964 1.93844,-0.99334 1.28142,-1.6819 2.0094,-3.6694 2.79289,-5.62341 0.78349,-1.95401 1.62247,-3.87452 3.12589,-5.42243 -0.0451,-0.58594 0.86251,-1.6649 1.67199,-2.29528 0.80948,-0.63037 1.52085,-0.81216 1.08332,0.39625 -0.81888,0.56566 -1.13654,1.41003 -1.42876,2.30132 -0.29222,0.89129 -0.55901,1.82953 -1.27617,2.58295 -0.57169,1.38928 -1.08542,2.83349 -1.65409,4.24005 -0.56867,1.40656 -1.19227,2.77547 -1.98369,4.01414 1.14024,-0.74553 2.41676,-0.99231 3.64526,-0.85298 1.22849,0.13933 2.40896,0.66476 3.3571,1.46369 1.05762,1.08046 2.49844,1.21324 3.95827,1.3316 1.45984,0.11837 2.93868,0.22232 4.07236,1.24512 1.6433,0.78001 3.39786,1.05012 5.18266,1.18754 1.78479,0.13742 3.59981,0.14215 5.36403,0.39138 1.31008,-0.23928 2.62835,0.2809 3.90442,0.67743 1.27607,0.39652 2.50995,0.66938 3.65126,-0.0646 -0.68683,-0.3576 -1.47263,-0.60019 -2.284,-0.78356 -0.81138,-0.18338 -1.64831,-0.30756 -2.43741,-0.42835 -0.80052,-0.0603 -2.17374,-0.2694 -3.51452,-0.75139 -1.34077,-0.48199 -2.64911,-1.23692 -3.31987,-2.389 -1.15346,-0.65478 -2.04208,-1.73002 -2.92281,-2.77975 -0.88073,-1.04972 -1.75357,-2.07393 -2.87549,-2.62665 -0.24158,-0.38749 -0.87418,-1.06606 -1.50433,-1.84646 -0.63014,-0.78041 -1.25783,-1.66266 -1.48958,-2.45753 0.009,-0.82975 -0.0921,-1.75023 -0.19378,-2.64489 -0.10173,-0.89465 -0.20366,-1.76345 -0.19499,-2.48987 0.44131,-0.91952 0.66586,-1.93793 0.86253,-2.97228 0.19667,-1.03436 0.36545,-2.08466 0.69523,-3.06797 0.49533,-2.31459 0.91132,-4.72188 1.01922,-7.12917 0.1079,-2.4073 -0.0923,-4.81459 -0.82934,-7.12918 -0.43417,-1.89612 -1.09943,-3.74147 -2.01336,-5.4495 -0.91394,-1.70804 -2.07654,-3.27876 -3.50538,-4.62566 -0.94269,-1.19283 -1.58442,-2.55633 -2.10053,-3.97224 -0.51611,-1.41591 -0.9066,-2.88423 -1.34683,-4.28669 -0.58664,-0.89851 -1.10156,-1.82773 -1.64096,-2.73576 -0.53939,-0.90802 -1.10324,-1.79486 -1.78775,-2.60859 -0.89309,-1.17016 -1.72166,-2.38324 -2.58606,-3.56732 -0.8644,-1.18408 -1.76464,-2.33917 -2.80108,-3.39335 -0.7844,-0.8122 -1.72586,-1.33861 -2.72075,-1.77066 -0.99489,-0.43204 -2.0432,-0.76973 -3.0413,-1.20447 -0.0812,-0.23222 -0.28528,-0.19205 -0.49484,-0.16111 -0.20955,0.031 -0.42456,0.0527 -0.52755,-0.21643 z m -4.15296,4.22847 c 0.6788,-0.23966 1.2229,-0.28587 1.73972,-0.22323 0.51681,0.0626 1.00634,0.23411 1.57601,0.42983 0.5541,0.42733 -0.0952,0.17867 -0.99911,0.016 -0.90391,-0.16261 -2.06243,-0.23915 -2.52677,0.53241 -1.16979,0.74337 -1.37229,0.72451 -1.15482,0.43485 0.21746,-0.28966 0.8549,-0.85011 1.36497,-1.18991 z m -11.401768,1.28365 c 0.10373,-0.043 0.0822,0.009 0.0456,0.0456 -0.0367,0.0367 -0.0885,0.0582 -0.0456,-0.0456 z m 12.685408,0.37754 c 1.55734,0.66525 1.40541,1.51236 0.67822,1.95508 -0.72719,0.44272 -2.02963,0.48106 -2.77331,-0.47125 -1.77841,-0.44817 -1.37293,-0.69332 -0.46371,-0.88932 0.90923,-0.19601 2.3222,-0.34289 2.5588,-0.59451 z m 7.32432,2.7183 c 1.46641,-0.538 2.69898,1.29651 3.17656,2.84465 0.47757,1.54815 0.20015,2.80994 -1.35342,1.1265 -0.92569,-0.004 -1.84601,-0.6108 -2.16889,-1.0605 -0.32288,-0.44969 -0.0483,-0.74224 1.41571,-0.11759 1.70734,0.95842 1.48175,0.50241 0.82743,-0.2585 -0.65432,-0.76091 -1.73737,-1.82673 -1.74496,-2.08793 l -0.0762,-0.22331 z m -14.799648,2.11424 c 1.354948,-0.24777 2.587978,0.19413 3.746568,0.86807 1.15858,0.67393 2.24274,1.5799 3.29997,2.26024 1.34905,1.04798 2.54603,2.26646 3.58491,3.61019 1.03888,1.34372 1.91966,2.81269 2.63631,4.36167 0.35836,0.94003 0.7572,1.87255 1.07347,2.82444 0.31628,0.95189 0.54999,1.92315 0.5781,2.94066 0.1347,0.41696 0.32762,1.36444 0.38824,1.9497 0.0606,0.58527 -0.011,0.80831 -0.40547,-0.22359 -0.34779,-0.9403 -0.58039,-1.91461 -0.84405,-2.87647 -0.26366,-0.96185 -0.55837,-1.91124 -1.03038,-2.80167 -0.68368,-1.83058 -1.63694,-3.54868 -2.82493,-5.0821 -1.188,-1.53341 -2.61073,-2.88214 -4.23338,-3.97396 -0.67774,-0.36516 -1.31892,-0.79651 -1.96228,-1.21777 -0.64335,-0.42127 -1.28889,-0.83245 -1.97534,-1.15729 -1.12711,-0.5644 -1.59362,-0.51342 -1.53121,-0.2414 0.0624,0.272 0.65374,0.76504 1.64232,1.08473 0.85879,0.86373 1.78869,1.60593 2.69537,2.37278 0.90668,0.76686 1.79014,1.55836 2.55609,2.5207 1.49087,1.75742 2.65443,3.77597 3.52089,5.92064 0.86645,2.14468 1.4358,4.41548 1.73825,6.67739 -0.26278,1.14296 -0.58028,0.54108 -0.88893,-0.48659 -0.30866,-1.02768 -0.60847,-2.48114 -0.83589,-3.04137 -0.61937,-2.03208 -1.39562,-4.10482 -2.45186,-5.99533 -1.05624,-1.8905 -2.39247,-3.59877 -4.13183,-4.9019 -0.67897,-0.7152 -1.37124,-1.41588 -2.10187,-2.07483 -0.73064,-0.65893 -1.49964,-1.27612 -2.332078,-1.82435 -1.02554,-0.43484 -0.83885,-0.44431 -0.51879,-0.46152 0.32007,-0.0172 0.7735,-0.0421 0.28144,-0.50788 0.14844,0.002 0.20073,-0.0867 0.23055,-0.19712 0.0298,-0.11042 0.0372,-0.24233 0.0958,-0.32607 z m 28.240148,19.10363 c 0.37971,0.93079 0.0656,1.99233 -0.1247,2.62792 -0.19025,0.6356 -0.2566,0.84525 0.61871,0.0722 -0.37283,0.89947 -1.00015,1.70663 -1.63007,2.53123 -0.62993,0.82461 -1.26245,1.66663 -1.64569,2.63581 -0.40241,0.97133 -0.98889,1.80293 -1.58922,2.62389 -0.60032,0.82096 -1.21448,1.63126 -1.67226,2.56 -0.67906,1.15941 -1.22272,1.60353 -1.40603,1.50043 -0.18331,-0.10309 -0.006,-0.75339 0.75607,-1.78281 0.65867,-1.31697 1.49136,-2.52728 2.30598,-3.74802 0.81461,-1.22074 1.61113,-2.45191 2.19747,-3.8106 0.6624,-0.68925 1.10716,-1.55348 1.43765,-2.46454 0.33049,-0.91106 0.54672,-1.86896 0.75209,-2.74555 z m -26.42795,4.00195 c 0.10373,-0.043 0.0823,0.009 0.0456,0.0456 -0.0367,0.0367 -0.0885,0.0581 -0.0456,-0.0456 z m 35.791,10.64669 c -0.34869,1.87978 -0.77877,3.76424 -1.20867,5.65231 -0.4299,1.88806 -0.85962,3.77974 -1.2076,5.67396 -0.41449,0.97354 -0.54628,2.03951 -0.37132,3.04237 0.17496,1.00285 0.65669,1.94258 1.46923,2.66362 0.88037,1.04514 1.91106,1.936 2.93219,2.8383 1.02113,0.90231 2.03271,1.81607 2.87487,2.90703 0.96894,0.7791 1.85748,1.73021 2.8444,2.49239 0.98692,0.76219 2.07221,1.33545 3.43465,1.35884 0.98105,0.08 1.94563,0.31544 2.9088,0.48281 0.96317,0.16738 1.92493,0.26668 2.90031,0.0744 0.12908,0.0555 -1.07194,-0.49383 -1.84597,-0.9929 -0.77403,-0.49909 -1.12107,-0.94794 0.71596,-0.6915 0.95101,0.36654 1.96536,0.53428 2.97239,0.73933 1.00704,0.20505 2.00676,0.4474 2.9285,0.96319 0.34965,-0.0542 1.51555,-0.12269 2.45733,-0.28815 0.94177,-0.16547 1.65942,-0.4279 1.11256,-0.87 -0.46576,-0.62923 -1.51764,-0.55831 -2.39296,-0.54572 -0.87531,0.0126 -1.57407,-0.0332 -1.33361,-0.89569 1.26907,-1.11618 -0.23533,-0.92103 -1.58653,-0.76433 -1.35119,0.1567 -2.54918,0.27495 -0.6673,-0.99502 1.27188,-0.12602 2.44879,-0.81827 3.05715,-1.78346 0.60835,-0.9652 0.64816,-2.20335 -0.35416,-3.42115 -0.81869,-1.48555 -1.45312,-3.10997 -2.23196,-4.63268 -0.77883,-1.5227 -1.70209,-2.94372 -3.09844,-4.02247 -1.36709,-0.19255 -2.73796,-0.40682 -4.07187,-0.74986 -1.33391,-0.34304 -2.63087,-0.81485 -3.85015,-1.52247 -1.30981,-0.54965 -2.42796,-1.36846 -3.50116,-2.24735 -1.07321,-0.87888 -2.10148,-1.81784 -3.23154,-2.60777 -0.22783,-0.35932 -0.50542,-0.66345 -0.79415,-0.95794 -0.28873,-0.29449 -0.58859,-0.57934 -0.86095,-0.90012 z m -36.77261,8.23042 c 0.10373,-0.043 0.0823,0.009 0.0456,0.0456 -0.0367,0.0367 -0.0885,0.0582 -0.0456,-0.0456 z m 3.02034,8.98551 c -0.38848,1.58609 -1.53588,2.81818 -2.95314,3.80775 -1.417268,0.98956 -3.104398,1.73661 -4.572318,2.35264 -0.818,0.57401 -1.82081,1.06419 -2.79537,1.50278 -0.97455,0.43859 -1.92086,0.82557 -2.62585,1.19321 1.88552,-0.3072 3.73808,-1.02555 5.61341,-1.5513 1.87534,-0.52575 3.773448,-0.85888 5.750068,-0.39564 1.28768,0.20577 2.58099,0.36065 3.87689,0.41592 1.2959,0.0553 2.59438,0.011 3.89238,-0.18164 0.55157,-0.12799 -0.16333,-0.77849 -1.06316,-1.59113 -0.89984,-0.81265 -1.98461,-1.78742 -2.1728,-2.56397 -0.41113,-0.56701 -0.90589,-1.06341 -1.41926,-1.54344 -0.51336,-0.48003 -1.04533,-0.94369 -1.53085,-1.44518 z m 19.63219,2.11423 c 0.48538,-1.5678 1.29489,-1.42378 1.62549,-0.95038 0.3306,0.4734 0.1823,1.27618 -1.24795,1.02589 0.30632,0.53252 0.76936,1.27909 1.01868,1.71854 0.24933,0.43946 0.28495,0.57181 -0.26359,-0.12412 -0.0927,-0.16697 -0.32498,-0.55545 -0.41007,-0.61016 -0.0851,-0.0547 -0.023,0.22434 0.47293,1.39246 -0.21079,0.48226 -0.34725,-0.07 -0.51221,-0.77328 -0.16496,-0.70324 -0.35844,-1.55743 -0.68328,-1.67895 z m -18.95261,-1.20813 c 0.10373,-0.043 0.0822,0.009 0.0456,0.0456 -0.0367,0.0367 -0.0885,0.0582 -0.0456,-0.0456 z m 35.11142,2.11424 c -0.10373,-0.043 -0.0822,0.009 -0.0456,0.0456 0.0367,0.0367 0.0885,0.0582 0.0456,-0.0456 z m -46.211168,5.13457 c 0.10374,-0.043 0.0823,0.009 0.0456,0.0456 -0.0367,0.0367 -0.0885,0.0582 -0.0456,-0.0456 z m 24.917788,0.37754 c 0.10373,-0.043 0.0822,0.009 0.0456,0.0456 -0.0367,0.0367 -0.0885,0.0581 -0.0456,-0.0456 z m -17.29143,0.0755 c 0.10373,-0.043 0.0822,0.009 0.0456,0.0456 -0.0367,0.0367 -0.0885,0.0582 -0.0456,-0.0456 z m 17.14041,0 c 0.10373,-0.043 0.0823,0.009 0.0456,0.0456 -0.0367,0.0367 -0.0885,0.0582 -0.0456,-0.0456 z m -29.448288,0.30203 c 0.10373,-0.043 0.0822,0.009 0.0456,0.0456 -0.0367,0.0367 -0.0885,0.0582 -0.0456,-0.0456 z m 7.70186,0.52856 c 0.10373,-0.043 0.0823,0.009 0.0456,0.0456 -0.0367,0.0367 -0.0885,0.0582 -0.0456,-0.0456 z m 48.627438,0.30203 c 0.10373,-0.043 0.0822,0.009 0.0456,0.0456 -0.0367,0.0367 -0.0885,0.0582 -0.0456,-0.0456 z m -55.574218,0.9061 c 0.10374,-0.043 0.0822,0.009 0.0456,0.0456 -0.0367,0.0367 -0.0885,0.0582 -0.0456,-0.0456 z"
       transform="matrix(0.79168123,0,0,0.79164301,26.445293,44.810986)" />
    <path
       id="path965"
       style="opacity:1;fill:#ffffff;fill-opacity:1;stroke:none;stroke-width:0.0755084"
       d="m 108.50563,141.85382 c 0.9782,-0.47552 2.01344,-0.84531 3.06133,-0.97841 1.04789,-0.1331 2.10845,-0.0295 3.13726,0.44175 0.81537,0.21359 1.61619,0.51818 2.39663,0.87268 0.78043,0.35449 1.54049,0.7589 2.27433,1.17213 0.72531,0.74022 1.47801,1.46139 2.17677,2.22561 0.69877,0.76423 1.3436,1.57153 1.85319,2.484 0.78397,0.99114 1.53988,2.00323 2.2625,3.03844 0.72263,1.03522 1.41198,2.09354 2.06279,3.17716 0.32662,1.35091 0.76035,2.70386 1.36859,3.96284 0.60823,1.25897 1.39097,2.42397 2.41559,3.399 1.17028,1.31276 1.9762,2.8514 2.57887,4.48134 0.60266,1.62993 1.00207,3.35118 1.35934,5.02919 0.0784,0.75364 0.0879,1.51099 0.0717,2.26717 -0.0162,0.75618 -0.0581,1.5112 -0.0826,2.26017 0.45084,0.8216 0.99906,1.6202 1.66482,2.29103 0.66575,0.67083 1.44905,1.2139 2.37006,1.52444 1.10793,0.81919 2.33213,1.51702 3.62932,2.01182 1.29719,0.49479 2.66737,0.78656 4.06727,0.79362 1.15222,0.24239 1.96015,1.005 2.64471,1.9221 0.68455,0.91711 1.24573,1.98871 1.90445,2.84906 0.44526,0.90591 0.82807,1.85309 1.27624,2.75928 0.44815,0.9062 0.96166,1.77142 1.66831,2.51342 -0.23787,0.99884 -0.62645,1.95811 -0.60156,2.77458 0.0249,0.81647 0.46327,1.49014 1.87938,1.91778 0.91668,0.3818 1.4263,0.98197 1.41019,1.43733 -0.0161,0.45537 -0.55791,0.76594 -1.74412,0.56852 -1.18785,0.68686 -2.32464,0.60333 -3.45536,0.3163 -1.13072,-0.28704 -2.25537,-0.77758 -3.41896,-0.90473 0.88555,0.41979 1.36378,1.19609 1.31426,1.85289 -0.0495,0.65681 -0.62679,1.19411 -1.85226,1.1359 -1.15111,0.22156 -2.21242,-0.11391 -3.27374,-0.46699 -1.06132,-0.35308 -2.12265,-0.72376 -3.2738,-0.57263 -1.12117,-0.18367 -2.26039,-0.207 -3.39099,-0.2754 -1.13059,-0.0684 -2.25254,-0.18185 -3.33918,-0.54574 -0.76715,-0.1156 -1.47461,-0.48786 -2.17,-0.82359 -0.69539,-0.33574 -1.37872,-0.63494 -2.0976,-0.60443 -0.85411,-0.0966 -1.63713,-0.18289 -2.35563,-0.37058 -0.7185,-0.18769 -1.37248,-0.47679 -1.96851,-0.97905 -0.73075,-0.84163 -1.54491,-0.92448 -2.37575,-0.72549 -0.83083,0.199 -1.67835,0.67984 -2.47584,0.9656 -0.66993,-0.34567 -1.23315,-0.0457 -1.80879,0.29338 -0.57564,0.33914 -1.1637,0.71753 -1.88334,0.52881 -0.65975,-0.30756 -1.34396,-0.31867 -2.03807,-0.27198 -0.69412,0.0467 -1.39813,0.15115 -2.09751,0.0747 -0.89161,0.21423 -1.73149,0.22001 -2.57771,0.1471 -0.84621,-0.0729 -1.69877,-0.22451 -2.61573,-0.32501 -1.26655,-0.30631 -2.5451,-0.2904 -3.80224,-0.0781 -1.25713,0.21233 -2.49285,0.62108 -3.67372,1.10047 -0.61141,0.15942 -1.329386,0.39397 -2.023429,0.50126 -0.694052,0.10729 -1.364178,0.0873 -1.879887,-0.26231 -0.332451,-0.58173 -0.477146,-1.2283 -0.335895,-1.7819 0.141244,-0.5536 0.568427,-1.01426 1.379727,-1.22414 0.675145,-0.29575 1.348787,-0.57671 2.006124,-0.88643 0.65734,-0.30972 1.29838,-0.64819 1.90832,-1.05899 0.92027,-0.48383 1.89768,-0.92268 2.8052,-1.45454 0.90751,-0.53185 1.74512,-1.15671 2.3858,-2.01259 -0.80776,-0.79837 -0.94884,-1.88837 -0.92317,-3.02587 0.0257,-1.13749 0.21809,-2.32249 0.0773,-3.31088 -0.59305,-1.84291 -0.74682,-3.74912 -0.73412,-5.66981 0.0127,-1.92068 0.1919,-3.85583 0.26478,-5.75661 0.1698,-0.58872 0.25572,-1.22128 0.36383,-1.8387 0.10812,-0.61741 0.23843,-1.2197 0.49698,-1.74785 0.0999,0.01 0.15882,-0.42413 0.2566,-0.886 0.0978,-0.46187 0.23441,-0.95192 0.48967,-1.05511 0.31223,-0.26688 0.49272,-0.62938 0.61856,-1.04193 0.12583,-0.41255 0.19699,-0.87514 0.29055,-1.34221 0.32263,-1.11934 0.38673,-2.31518 0.15011,-3.43701 -0.23661,-1.12183 -0.77395,-2.16964 -1.65418,-2.99291 -0.77552,-0.38598 -1.19575,-1.6509 -1.59805,-2.5524 -0.4023,-0.90148 -0.78667,-1.43954 -1.49045,-0.3718 -0.99905,0.99982 -1.63246,2.22816 -2.09929,3.53123 -0.46683,1.30306 -0.76708,2.68083 -1.09979,3.97951 -0.11057,0.66726 -0.47042,1.65527 -0.732179,2.10626 -0.26177,0.45099 -0.425442,0.36496 -0.143651,-1.11585 0.48825,-1.61698 0.84394,-3.32988 1.36959,-4.96545 0.52566,-1.63556 1.22127,-3.19379 2.38936,-4.50138 0.59601,-0.60624 0.18087,-1.16082 -0.36536,-1.30394 -0.54623,-0.14313 -1.22355,0.12519 -1.1519,1.16475 -0.39275,1.2214 -1.0649,2.36529 -1.63575,3.54289 -0.570868,1.1776 -1.040454,2.3889 -1.028072,3.74513 -0.134831,0.68085 -0.240299,1.39893 -0.376175,2.09888 -0.135877,0.69995 -0.302153,1.38177 -0.558595,1.99013 -0.118467,-1.07003 -0.0365,-2.14628 0.120755,-3.21837 0.15722,-1.0721 0.38965,-2.14004 0.572046,-3.19346 0.386815,-0.97448 0.848761,-1.91203 1.299941,-2.85252 0.45118,-0.94049 0.89158,-1.8839 1.23531,-2.87013 0.5825,-0.394 0.53092,-1.00541 0.24683,-1.63231 -0.2841,-0.62689 -0.80072,-1.26929 -1.1483,-1.7253 -0.56832,-0.8059 -0.61418,-1.8582 -0.27027,-2.74948 0.34392,-0.89127 1.07761,-1.62151 2.06841,-1.78331 0.51822,-0.55033 1.25604,-1.09139 2.05449,-1.62037 0.79845,-0.52898 1.65753,-1.0459 2.41825,-1.54796 0.27159,-0.17523 0.55049,-0.1647 0.81018,-0.18286 0.25969,-0.0181 0.50018,-0.065 0.69495,-0.35491 z m 5.14096,-0.17932 c -0.88082,-0.38424 -1.5474,-0.29504 -2.15699,-0.0519 -0.60959,0.24308 -1.16217,0.64005 -1.815,0.87134 -0.47726,0.33406 -1.09822,0.40419 -1.71436,0.51137 -0.61613,0.10719 -1.22743,0.25141 -1.6854,0.73368 -0.30164,0.37166 -0.68842,0.74868 -1.10789,1.05329 -0.41947,0.30461 -0.87163,0.53682 -1.30403,0.61886 -0.44128,0.48316 -1.09895,0.68674 -1.62443,0.97296 -0.52549,0.28621 -0.91877,0.65506 -0.83127,1.46873 0.0385,0.6643 0.23963,1.33312 0.55885,1.8733 0.31923,0.5402 0.75649,0.95175 1.26713,1.1015 0.15371,0.0451 0.41023,0.0123 0.6241,-0.0208 0.21388,-0.0331 0.38509,-0.0664 0.3682,-0.0224 0.0501,0.0713 -0.1499,0.11595 -0.37786,0.16279 -0.22795,0.0469 -0.48387,0.0959 -0.54562,0.17624 -0.30456,0.39611 0.39451,1.05077 1.22979,1.73442 0.8353,0.68365 1.80681,1.39629 2.04716,1.90838 0.78528,0.6552 1.13951,1.63008 1.55183,2.55394 0.41232,0.92385 0.88273,1.79666 1.90038,2.2477 0.62328,0.68692 0.69537,1.20826 0.6149,1.7654 -0.0805,0.55712 -0.3135,1.15005 -0.30046,1.98015 -0.0424,0.53764 -0.0746,1.07102 -0.14774,1.59931 -0.0732,0.52829 -0.18742,1.0515 -0.39386,1.5688 -0.34523,0.97717 -0.45622,1.9819 -0.44664,2.99202 0.01,1.01013 0.13972,2.02565 0.27678,3.0244 0.0323,0.61265 0.1119,1.22084 0.19683,1.83018 0.0849,0.60935 0.17522,1.21983 0.22889,1.83707 -0.69327,-0.66487 -1.06507,-1.52437 -1.36907,-2.42302 -0.30401,-0.89865 -0.54022,-1.83645 -0.9623,-2.65792 -0.27466,1.3848 -0.31787,2.79379 -0.33375,4.20445 -0.0159,1.41066 -0.005,2.823 -0.16968,4.21451 0.0468,0.91769 0.23762,1.81724 0.41516,2.71556 0.17753,0.89833 0.34179,1.79543 0.33553,2.70827 -0.22332,0.72871 -0.51964,1.7768 -0.49771,2.65648 0.0219,0.87968 0.36213,1.59094 1.41186,1.64599 0.99831,0.57927 1.85838,1.3243 2.64219,2.14805 0.78381,0.82374 1.49136,1.72619 2.18458,2.6203 0.4107,0.44431 0.8694,0.87677 1.38001,1.20295 0.51061,0.32618 1.07316,0.54608 1.69158,0.56528 0.5637,0.17046 1.16163,0.4187 1.72743,0.45932 0.56579,0.0406 1.09945,-0.12637 1.53462,-0.78637 1.01448,-1.33146 1.59081,-2.90485 2.21108,-4.45173 0.62028,-1.54688 1.28448,-3.06724 2.47471,-4.29263 -0.0357,-0.46385 0.68283,-1.31801 1.32368,-1.81704 0.64085,-0.49903 1.20403,-0.64294 0.85765,0.31369 -0.64829,0.4478 -0.89978,1.11624 -1.13113,1.82182 -0.23134,0.70558 -0.44255,1.44834 -1.01032,2.04478 -0.45259,1.09981 -0.8593,2.24311 -1.30951,3.3566 -0.4502,1.11349 -0.9439,2.19718 -1.57045,3.17777 0.90271,-0.5902 1.91331,-0.78556 2.88589,-0.67526 0.97257,0.1103 1.90712,0.52625 2.65775,1.15872 0.8373,0.85534 1.97797,0.96045 3.13369,1.05415 1.15573,0.0937 2.3265,0.176 3.22401,0.98569 1.30097,0.61749 2.69002,0.83132 4.10301,0.94011 1.41299,0.10879 2.84991,0.11253 4.24661,0.30983 1.03716,-0.18942 2.08081,0.22238 3.09105,0.53629 1.01024,0.3139 1.98708,0.52991 2.89064,-0.0511 -0.54376,-0.28309 -1.16586,-0.47514 -1.8082,-0.6203 -0.64236,-0.14517 -1.30494,-0.24348 -1.92966,-0.3391 -0.63375,-0.0477 -1.72091,-0.21327 -2.78238,-0.59484 -1.06146,-0.38156 -2.09725,-0.97919 -2.62827,-1.89123 -0.91318,-0.51835 -1.61668,-1.36956 -2.31394,-2.20057 -0.69726,-0.831 -1.38827,-1.64181 -2.27647,-2.07937 -0.19125,-0.30675 -0.69207,-0.84394 -1.19095,-1.46174 -0.49887,-0.6178 -0.9958,-1.31623 -1.17927,-1.94548 0.007,-0.65687 -0.0729,-1.38556 -0.15341,-2.09381 -0.0805,-0.70824 -0.16124,-1.39602 -0.15437,-1.97109 0.34937,-0.72793 0.52714,-1.53415 0.68284,-2.35298 0.1557,-0.81885 0.28932,-1.65031 0.55041,-2.42874 0.39214,-1.83233 0.72147,-3.73804 0.80689,-5.64376 0.0854,-1.90572 -0.0731,-3.81144 -0.65657,-5.64376 -0.34372,-1.50105 -0.8704,-2.96191 -1.59394,-4.31406 -0.72355,-1.35216 -1.64396,-2.59561 -2.77514,-3.66187 -0.74631,-0.9443 -1.25436,-2.02371 -1.66295,-3.1446 -0.4086,-1.1209 -0.71774,-2.28328 -1.06626,-3.39353 -0.46444,-0.7113 -0.87209,-1.44691 -1.29912,-2.16574 -0.42703,-0.71883 -0.87342,-1.42089 -1.41533,-2.06508 -0.70704,-0.92634 -1.363,-1.88667 -2.04733,-2.82404 -0.68433,-0.93737 -1.39704,-1.85179 -2.21757,-2.68632 -0.62099,-0.64297 -1.36633,-1.0597 -2.15396,-1.40173 -0.78764,-0.34202 -1.61757,-0.60935 -2.40774,-0.95351 -0.0643,-0.18384 -0.22585,-0.15204 -0.39176,-0.12754 -0.1659,0.0245 -0.33612,0.0417 -0.41765,-0.17134 z m -3.28782,3.34744 c 0.53739,-0.18973 0.96815,-0.22631 1.3773,-0.17672 0.40915,0.0496 0.7967,0.18533 1.2477,0.34027 0.43867,0.3383 -0.0754,0.14145 -0.79098,0.0127 -0.7156,-0.12873 -1.63278,-0.18932 -2.00039,0.42148 -0.9261,0.58848 -1.08642,0.57355 -0.91425,0.34424 0.17216,-0.2293 0.67681,-0.67298 1.08062,-0.94198 z m -9.02657,1.01619 c 0.0821,-0.034 0.0651,0.007 0.0361,0.0361 -0.029,0.029 -0.0701,0.0461 -0.0361,-0.0361 z m 10.0428,0.29888 c 1.23292,0.52664 1.11264,1.19725 0.53694,1.54772 -0.57571,0.35048 -1.60682,0.38083 -2.19558,-0.37306 -1.40793,-0.35479 -1.08692,-0.54886 -0.36711,-0.70402 0.71982,-0.15517 1.83844,-0.27145 2.02575,-0.47064 z m 5.79853,2.15192 c 1.16093,-0.4259 2.13673,1.02638 2.51482,2.25195 0.37809,1.22558 0.15846,2.22447 -1.07147,0.89179 -0.73286,-0.003 -1.46146,-0.48354 -1.71707,-0.83954 -0.25562,-0.356 -0.0382,-0.58759 1.12079,-0.0931 1.35167,0.75873 1.17307,0.39773 0.65506,-0.20464 -0.51802,-0.60237 -1.37545,-1.44612 -1.38145,-1.6529 l -0.0603,-0.17678 z m -11.7166,1.67373 c 1.07268,-0.19615 2.04885,0.15368 2.96608,0.6872 0.91723,0.53351 1.77554,1.25071 2.61253,1.7893 1.06802,0.82963 2.01564,1.79423 2.8381,2.85798 0.82247,1.06375 1.51976,2.22665 2.08712,3.45289 0.28371,0.74417 0.59946,1.48239 0.84985,2.23595 0.25039,0.75355 0.43541,1.52244 0.45767,2.32795 0.10664,0.33008 0.25937,1.08015 0.30736,1.54347 0.048,0.46332 -0.009,0.63989 -0.321,-0.17701 -0.27534,-0.74438 -0.45949,-1.51569 -0.66822,-2.27714 -0.20874,-0.76144 -0.44205,-1.51302 -0.81573,-2.21792 -0.54126,-1.44916 -1.29594,-2.80929 -2.23645,-4.02321 -0.94052,-1.21391 -2.06686,-2.28162 -3.35149,-3.14595 -0.53655,-0.28908 -1.04416,-0.63056 -1.5535,-0.96404 -0.50932,-0.3335 -1.02039,-0.65901 -1.56384,-0.91616 -0.89231,-0.44681 -1.26163,-0.40645 -1.21223,-0.19111 0.0494,0.21533 0.51756,0.60564 1.3002,0.85872 0.67989,0.68377 1.41607,1.27133 2.13387,1.8784 0.7178,0.60708 1.41722,1.23366 2.02361,1.99549 1.18029,1.39125 2.10146,2.98922 2.78742,4.68703 0.68596,1.69783 1.1367,3.49549 1.37614,5.28611 -0.20803,0.90482 -0.45939,0.42835 -0.70375,-0.3852 -0.24436,-0.81356 -0.48171,-1.96418 -0.66175,-2.40768 -0.49035,-1.60868 -1.10489,-3.24955 -1.9411,-4.74616 -0.8362,-1.4966 -1.89407,-2.84894 -3.27109,-3.88056 -0.53753,-0.56618 -1.08558,-1.12087 -1.66401,-1.64252 -0.57843,-0.52164 -1.18724,-1.01023 -1.84626,-1.44424 -0.8119,-0.34423 -0.6641,-0.35173 -0.41072,-0.36535 0.2534,-0.0136 0.61237,-0.0333 0.22281,-0.40206 0.11752,0.002 0.15892,-0.0686 0.18252,-0.15605 0.0236,-0.0874 0.0295,-0.19184 0.0759,-0.25813 z m 22.35719,15.12325 c 0.30061,0.73685 0.0519,1.57721 -0.0987,2.08038 -0.15062,0.50316 -0.20315,0.66913 0.48982,0.0572 -0.29516,0.71206 -0.7918,1.35104 -1.2905,2.00383 -0.4987,0.6528 -0.99945,1.31938 -1.30286,2.08662 -0.31858,0.76895 -0.78288,1.42728 -1.25815,2.07719 -0.47527,0.6499 -0.96148,1.29137 -1.3239,2.0266 -0.5376,0.91784 -0.96801,1.26943 -1.11313,1.18781 -0.14512,-0.0816 -0.005,-0.59642 0.59857,-1.41135 0.52145,-1.04257 1.18068,-2.0007 1.8256,-2.96709 0.64491,-0.96639 1.2755,-1.94104 1.7397,-3.01664 0.5244,-0.54564 0.87651,-1.2298 1.13816,-1.95104 0.26164,-0.72123 0.43282,-1.47954 0.59541,-2.17349 z m -20.92251,3.16812 c 0.0821,-0.034 0.0652,0.007 0.0361,0.0361 -0.029,0.029 -0.0701,0.046 -0.0361,-0.0361 z m 28.33506,8.42837 c -0.27605,1.48812 -0.61654,2.97994 -0.95688,4.47462 -0.34034,1.49467 -0.68054,2.9922 -0.95603,4.49175 -0.32815,0.77069 -0.43248,1.61456 -0.29397,2.40847 0.13851,0.7939 0.51989,1.53783 1.16316,2.10863 0.69697,0.82738 1.51295,1.53262 2.32136,2.24692 0.80841,0.71431 1.60926,1.43768 2.27598,2.30133 0.76709,0.61677 1.47053,1.36971 2.25186,1.97309 0.78133,0.60338 1.64053,1.0572 2.71915,1.07571 0.77668,0.0633 1.54032,0.24972 2.30284,0.38222 0.76252,0.1325 1.52393,0.21111 2.29612,0.0589 0.10219,0.0439 -0.84863,-0.39093 -1.46142,-0.78602 -0.61278,-0.3951 -0.88753,-0.75043 0.56681,-0.54742 0.7529,0.29017 1.55594,0.42296 2.35319,0.58529 0.79725,0.16232 1.58871,0.35418 2.31844,0.7625 0.27681,-0.0429 1.19983,-0.0971 1.94542,-0.22811 0.74558,-0.131 1.31373,-0.33875 0.88079,-0.68873 -0.36873,-0.49813 -1.20149,-0.44198 -1.89446,-0.43202 -0.69297,0.01 -1.24616,-0.0263 -1.05579,-0.70906 1.0047,-0.88362 -0.18631,-0.72913 -1.25603,-0.60508 -1.06971,0.12405 -2.01814,0.21766 -0.52829,-0.7877 1.00693,-0.0998 1.93866,-0.64778 2.42029,-1.41186 0.48162,-0.7641 0.51314,-1.74427 -0.28038,-2.70833 -0.64814,-1.17603 -1.15041,-2.46199 -1.767,-3.66743 -0.61659,-1.20544 -1.34752,-2.33038 -2.45298,-3.18436 -1.0823,-0.15243 -2.16759,-0.32206 -3.22362,-0.59362 -1.05603,-0.27157 -2.08281,-0.64507 -3.04809,-1.20526 -1.03696,-0.43512 -1.92217,-1.08333 -2.77181,-1.7791 -0.84964,-0.69576 -1.6637,-1.43908 -2.55835,-2.06442 -0.18037,-0.28445 -0.40013,-0.52521 -0.62871,-0.75835 -0.22858,-0.23313 -0.46598,-0.45863 -0.6816,-0.71257 z m -29.11218,6.51556 c 0.0821,-0.034 0.0652,0.007 0.0361,0.0361 -0.0291,0.0291 -0.0701,0.0461 -0.0361,-0.0361 z m 2.39114,7.11331 c -0.30755,1.25562 -1.21592,2.231 -2.33794,3.01438 -1.12203,0.78338 -2.4577,1.37478 -3.61982,1.86245 -0.6476,0.45442 -1.4415,0.84246 -2.21304,1.18967 -0.771535,0.34721 -1.520711,0.65356 -2.078839,0.9446 1.492731,-0.2432 2.959369,-0.81187 4.444029,-1.22808 1.48467,-0.41621 2.98737,-0.67993 4.55222,-0.31321 1.01944,0.1629 2.04332,0.28551 3.06926,0.32926 1.02594,0.0438 2.05393,0.009 3.08153,-0.14379 0.43667,-0.10132 -0.12931,-0.61629 -0.84168,-1.25961 -0.71239,-0.64332 -1.57118,-1.41499 -1.72017,-2.02974 -0.32548,-0.44887 -0.71718,-0.84185 -1.1236,-1.22186 -0.40642,-0.38001 -0.82757,-0.74706 -1.21195,-1.14407 z m 15.54244,1.67372 c 0.38427,-1.24114 1.02514,-1.12713 1.28687,-0.75236 0.26173,0.37476 0.14432,1.01028 -0.98798,0.81214 0.24251,0.42156 0.60909,1.01258 0.80647,1.36047 0.19739,0.34789 0.22559,0.45267 -0.20868,-0.0983 -0.0734,-0.13218 -0.25728,-0.43972 -0.32464,-0.48303 -0.0674,-0.0433 -0.0182,0.1776 0.37441,1.10233 -0.16688,0.38178 -0.27491,-0.0554 -0.40551,-0.61216 -0.1306,-0.55672 -0.28377,-1.23293 -0.54094,-1.32913 z m -15.00443,-0.95641 c 0.0821,-0.034 0.0651,0.007 0.0361,0.0361 -0.029,0.029 -0.0701,0.0461 -0.0361,-0.0361 z m 27.79706,1.67373 c -0.0821,-0.034 -0.0651,0.007 -0.0361,0.0361 0.0291,0.0291 0.0701,0.0461 0.0361,-0.0361 z m -36.58452,4.06474 c 0.0821,-0.034 0.0652,0.007 0.0361,0.0361 -0.0291,0.0291 -0.0701,0.0461 -0.0361,-0.0361 z m 19.72695,0.29888 c 0.0821,-0.034 0.0651,0.007 0.0361,0.0361 -0.0291,0.029 -0.0701,0.046 -0.0361,-0.0361 z m -13.6893,0.0598 c 0.0821,-0.034 0.0651,0.007 0.0361,0.0361 -0.0291,0.0291 -0.0701,0.0461 -0.0361,-0.0361 z m 13.56974,0 c 0.0821,-0.034 0.0652,0.007 0.0361,0.0361 -0.0291,0.0291 -0.0701,0.0461 -0.0361,-0.0361 z m -23.31366,0.2391 c 0.08212,-0.034 0.06508,0.007 0.0361,0.0361 -0.02905,0.029 -0.07006,0.0461 -0.0361,-0.0361 z m 6.09742,0.41843 c 0.0821,-0.034 0.0652,0.007 0.0361,0.0361 -0.0291,0.029 -0.0701,0.0461 -0.0361,-0.0361 z m 38.49743,0.2391 c 0.0821,-0.034 0.0651,0.007 0.0361,0.0361 -0.0291,0.0291 -0.0701,0.0461 -0.0361,-0.0361 z m -43.997067,0.71731 c 0.08213,-0.034 0.06508,0.007 0.0361,0.0361 -0.02905,0.029 -0.07006,0.0461 -0.0361,-0.0361 z" />
  </g>
</svg>
